<svg id="레이어_1" data-name="레이어 1" xmlns="http://www.w3.org/2000/svg" viewBox="0 0 128 128"><defs><style>.cls-1{fill:#fcfeff;}.cls-2{fill:#ed2517;}</style></defs><circle class="cls-1" cx="64" cy="64" r="64"/><path class="cls-2" d="M30.57,51.19h-4c0,5.43,0,9,0,14.38-1.72-5.3-3.44-8.81-5.16-14.38H17.56V76.65c1.29-.19,2.68-.36,4-.53,0-5.32,0-8.59,0-13.92,1.78,5.24,2.88,8.33,4.65,13.31,1.4-.16,2.93-.36,4.33-.5q0-11.91,0-23.82" transform="translate(0 0)"/><path class="cls-2" d="M45.49,51.19H34.42q0,11.75,0,23.49c3.7-.34,7.4-.61,11.11-.83,0-1.14,0-2.79,0-3.93-2.41.14-4.72.3-7.12.46,0-2.1,0-3.85,0-5.95,1.76,0,3.61,0,5.4,0,0-1.15,0-2.8,0-4l-5.4.07c0-2.11,0-3.26,0-5.37h7.1c0-1.14,0-2.79,0-3.93" transform="translate(0 0)"/><path class="cls-2" d="M60.4,51.2H48.08v3.92h4.15c0,6.31,0,12.07,0,18.39,1.31,0,2.7-.09,4-.12,0-6.28,0-12,0-18.29l4.18,0V51.2" transform="translate(0 0)"/><path class="cls-2" d="M74.11,51.19H63q0,11.06,0,22.11h4V64.19h5.41V60.29H67V55.13h7.16v-4" transform="translate(0 0)"/><path class="cls-2" d="M76.7,51.2c0,7.45,0,14.89,0,22.33,3.56.13,7.29.28,10.84.52,0-1.14,0-2.79,0-3.94-2.24-.13-4.58-.29-6.83-.38,0-6.37,0-12.15,0-18.53h-4" transform="translate(0 0)"/><path class="cls-2" d="M90.8,51.2q0,11.55,0,23.09c1.3.1,2.65.21,4,.33,0-7.8,0-15.61,0-23.42h-4" transform="translate(0 0)"/><path class="cls-2" d="M98.22,51.2c1.59,3.9,3,7.8,4.68,11.93-1.69,4-3.41,7.91-5.09,11.72,1.4.14,2.84.34,4.23.5C103,72.89,104,71,105,68.49c1,2.68,1.91,4.75,2.91,7.52,1.39.18,3.19.44,4.58.64-1.68-4.5-3.52-9.19-5.22-13.45,1.69-4,3.41-7.82,5.16-12H108c-1.08,2.58-1.82,4.24-2.86,6.7-1-2.56-1.62-4.22-2.58-6.71H98.22" transform="translate(0 0)"/></svg>