<svg id="레이어_1" data-name="레이어 1" xmlns="http://www.w3.org/2000/svg" viewBox="0 0 128.11 128"><defs><style>.cls-1{fill:#fe153d;}.cls-2{fill:#9001fd;}.cls-3{fill:#fdfbfd;}.cls-4{fill:#9101fb;}</style></defs><circle class="cls-1" cx="64" cy="64" r="64"/><path class="cls-2" d="M128.11,68c-1,27.36-23.39,53.13-50.38,58a14.76,14.76,0,0,1-1.89.11L55.28,105.35c-.81-.83-1.57-1.72-2.35-2.58H77.29v-50H99.56C97.75,47.9,96,43.49,94.47,39a46.82,46.82,0,0,1-1.16-4.88,25.54,25.54,0,0,1,2.74,2.07Q112.12,52.1,128.11,68Z"/><path class="cls-3" d="M93.31,34.14A46.82,46.82,0,0,0,94.47,39c1.57,4.47,3.28,8.88,5.09,13.75H77.29v50H52.93q-.15-9.9-.31-19.78-.06-4.26-.13-8.5V52.88H31c-.15-4.1-.34-8.2-.43-12.3-.07-3.48,0-7,0-10.92h3.63c16.43,0,32.86.11,49.28-.08C87.69,29.54,91.22,30,93.31,34.14Z"/><path class="cls-4" d="M31,52.88H52.49V74.49Z"/></svg>