<svg id="레이어_1" data-name="레이어 1" xmlns="http://www.w3.org/2000/svg" viewBox="0 0 128 128"><defs><style>.cls-1{fill:#fff;}.cls-2{fill:#1d00c7;}.cls-3{fill:#004fff;}.cls-4{fill:#00bff7;}</style></defs><circle class="cls-1" cx="64" cy="64" r="64"/><path class="cls-2" d="M97.81,56.74,50.17,25.17C45.24,21.9,39,25.89,39,32.33V86l.23,9.4c0,6.43,5.91,10,10.85,6.74l15.17-9.55,3-2,3.24-2.15,4.29-2.84,13.45-8.91,8.53-5.65C102.66,67.84,102.66,60,97.81,56.74Z" transform="translate(0)"/><path class="cls-3" d="M82.47,77.61a25.94,25.94,0,0,1-18-7.19h0A26,26,0,0,0,39,64.55V86l.23,9.4c0,6.43,5.91,10,10.85,6.74l15.17-9.55,3-2,3.24-2.15,4.29-2.84,13.45-8.91A26.33,26.33,0,0,1,82.47,77.61Z" transform="translate(0)"/><path class="cls-4" d="M39,86v9.43c0,6.43,6.24,10.43,11.17,7.16l15.08-10A26,26,0,0,0,39,86Z" transform="translate(0)"/></svg>